G75*
%MOIN*%
%OFA0B0*%
%FSLAX25Y25*%
%IPPOS*%
%LPD*%
%AMOC8*
5,1,8,0,0,1.08239X$1,22.5*
%
%ADD10C,0.00000*%
%ADD11R,0.07087X0.06299*%
%ADD12R,0.03543X0.04724*%
%ADD13R,0.06299X0.07874*%
%ADD14R,0.07874X0.06299*%
%ADD15R,0.01575X0.05315*%
%ADD16R,0.05906X0.07480*%
D10*
X0001800Y0005756D02*
X0001800Y0183295D01*
X0060855Y0183295D01*
X0060855Y0005756D01*
X0001800Y0005756D01*
X0043138Y0017567D02*
X0043140Y0017720D01*
X0043146Y0017874D01*
X0043156Y0018027D01*
X0043170Y0018179D01*
X0043188Y0018332D01*
X0043210Y0018483D01*
X0043235Y0018634D01*
X0043265Y0018785D01*
X0043299Y0018935D01*
X0043336Y0019083D01*
X0043377Y0019231D01*
X0043422Y0019377D01*
X0043471Y0019523D01*
X0043524Y0019667D01*
X0043580Y0019809D01*
X0043640Y0019950D01*
X0043704Y0020090D01*
X0043771Y0020228D01*
X0043842Y0020364D01*
X0043917Y0020498D01*
X0043994Y0020630D01*
X0044076Y0020760D01*
X0044160Y0020888D01*
X0044248Y0021014D01*
X0044339Y0021137D01*
X0044433Y0021258D01*
X0044531Y0021376D01*
X0044631Y0021492D01*
X0044735Y0021605D01*
X0044841Y0021716D01*
X0044950Y0021824D01*
X0045062Y0021929D01*
X0045176Y0022030D01*
X0045294Y0022129D01*
X0045413Y0022225D01*
X0045535Y0022318D01*
X0045660Y0022407D01*
X0045787Y0022494D01*
X0045916Y0022576D01*
X0046047Y0022656D01*
X0046180Y0022732D01*
X0046315Y0022805D01*
X0046452Y0022874D01*
X0046591Y0022939D01*
X0046731Y0023001D01*
X0046873Y0023059D01*
X0047016Y0023114D01*
X0047161Y0023165D01*
X0047307Y0023212D01*
X0047454Y0023255D01*
X0047602Y0023294D01*
X0047751Y0023330D01*
X0047901Y0023361D01*
X0048052Y0023389D01*
X0048203Y0023413D01*
X0048356Y0023433D01*
X0048508Y0023449D01*
X0048661Y0023461D01*
X0048814Y0023469D01*
X0048967Y0023473D01*
X0049121Y0023473D01*
X0049274Y0023469D01*
X0049427Y0023461D01*
X0049580Y0023449D01*
X0049732Y0023433D01*
X0049885Y0023413D01*
X0050036Y0023389D01*
X0050187Y0023361D01*
X0050337Y0023330D01*
X0050486Y0023294D01*
X0050634Y0023255D01*
X0050781Y0023212D01*
X0050927Y0023165D01*
X0051072Y0023114D01*
X0051215Y0023059D01*
X0051357Y0023001D01*
X0051497Y0022939D01*
X0051636Y0022874D01*
X0051773Y0022805D01*
X0051908Y0022732D01*
X0052041Y0022656D01*
X0052172Y0022576D01*
X0052301Y0022494D01*
X0052428Y0022407D01*
X0052553Y0022318D01*
X0052675Y0022225D01*
X0052794Y0022129D01*
X0052912Y0022030D01*
X0053026Y0021929D01*
X0053138Y0021824D01*
X0053247Y0021716D01*
X0053353Y0021605D01*
X0053457Y0021492D01*
X0053557Y0021376D01*
X0053655Y0021258D01*
X0053749Y0021137D01*
X0053840Y0021014D01*
X0053928Y0020888D01*
X0054012Y0020760D01*
X0054094Y0020630D01*
X0054171Y0020498D01*
X0054246Y0020364D01*
X0054317Y0020228D01*
X0054384Y0020090D01*
X0054448Y0019950D01*
X0054508Y0019809D01*
X0054564Y0019667D01*
X0054617Y0019523D01*
X0054666Y0019377D01*
X0054711Y0019231D01*
X0054752Y0019083D01*
X0054789Y0018935D01*
X0054823Y0018785D01*
X0054853Y0018634D01*
X0054878Y0018483D01*
X0054900Y0018332D01*
X0054918Y0018179D01*
X0054932Y0018027D01*
X0054942Y0017874D01*
X0054948Y0017720D01*
X0054950Y0017567D01*
X0054948Y0017414D01*
X0054942Y0017260D01*
X0054932Y0017107D01*
X0054918Y0016955D01*
X0054900Y0016802D01*
X0054878Y0016651D01*
X0054853Y0016500D01*
X0054823Y0016349D01*
X0054789Y0016199D01*
X0054752Y0016051D01*
X0054711Y0015903D01*
X0054666Y0015757D01*
X0054617Y0015611D01*
X0054564Y0015467D01*
X0054508Y0015325D01*
X0054448Y0015184D01*
X0054384Y0015044D01*
X0054317Y0014906D01*
X0054246Y0014770D01*
X0054171Y0014636D01*
X0054094Y0014504D01*
X0054012Y0014374D01*
X0053928Y0014246D01*
X0053840Y0014120D01*
X0053749Y0013997D01*
X0053655Y0013876D01*
X0053557Y0013758D01*
X0053457Y0013642D01*
X0053353Y0013529D01*
X0053247Y0013418D01*
X0053138Y0013310D01*
X0053026Y0013205D01*
X0052912Y0013104D01*
X0052794Y0013005D01*
X0052675Y0012909D01*
X0052553Y0012816D01*
X0052428Y0012727D01*
X0052301Y0012640D01*
X0052172Y0012558D01*
X0052041Y0012478D01*
X0051908Y0012402D01*
X0051773Y0012329D01*
X0051636Y0012260D01*
X0051497Y0012195D01*
X0051357Y0012133D01*
X0051215Y0012075D01*
X0051072Y0012020D01*
X0050927Y0011969D01*
X0050781Y0011922D01*
X0050634Y0011879D01*
X0050486Y0011840D01*
X0050337Y0011804D01*
X0050187Y0011773D01*
X0050036Y0011745D01*
X0049885Y0011721D01*
X0049732Y0011701D01*
X0049580Y0011685D01*
X0049427Y0011673D01*
X0049274Y0011665D01*
X0049121Y0011661D01*
X0048967Y0011661D01*
X0048814Y0011665D01*
X0048661Y0011673D01*
X0048508Y0011685D01*
X0048356Y0011701D01*
X0048203Y0011721D01*
X0048052Y0011745D01*
X0047901Y0011773D01*
X0047751Y0011804D01*
X0047602Y0011840D01*
X0047454Y0011879D01*
X0047307Y0011922D01*
X0047161Y0011969D01*
X0047016Y0012020D01*
X0046873Y0012075D01*
X0046731Y0012133D01*
X0046591Y0012195D01*
X0046452Y0012260D01*
X0046315Y0012329D01*
X0046180Y0012402D01*
X0046047Y0012478D01*
X0045916Y0012558D01*
X0045787Y0012640D01*
X0045660Y0012727D01*
X0045535Y0012816D01*
X0045413Y0012909D01*
X0045294Y0013005D01*
X0045176Y0013104D01*
X0045062Y0013205D01*
X0044950Y0013310D01*
X0044841Y0013418D01*
X0044735Y0013529D01*
X0044631Y0013642D01*
X0044531Y0013758D01*
X0044433Y0013876D01*
X0044339Y0013997D01*
X0044248Y0014120D01*
X0044160Y0014246D01*
X0044076Y0014374D01*
X0043994Y0014504D01*
X0043917Y0014636D01*
X0043842Y0014770D01*
X0043771Y0014906D01*
X0043704Y0015044D01*
X0043640Y0015184D01*
X0043580Y0015325D01*
X0043524Y0015467D01*
X0043471Y0015611D01*
X0043422Y0015757D01*
X0043377Y0015903D01*
X0043336Y0016051D01*
X0043299Y0016199D01*
X0043265Y0016349D01*
X0043235Y0016500D01*
X0043210Y0016651D01*
X0043188Y0016802D01*
X0043170Y0016955D01*
X0043156Y0017107D01*
X0043146Y0017260D01*
X0043140Y0017414D01*
X0043138Y0017567D01*
X0043138Y0171110D02*
X0043140Y0171263D01*
X0043146Y0171417D01*
X0043156Y0171570D01*
X0043170Y0171722D01*
X0043188Y0171875D01*
X0043210Y0172026D01*
X0043235Y0172177D01*
X0043265Y0172328D01*
X0043299Y0172478D01*
X0043336Y0172626D01*
X0043377Y0172774D01*
X0043422Y0172920D01*
X0043471Y0173066D01*
X0043524Y0173210D01*
X0043580Y0173352D01*
X0043640Y0173493D01*
X0043704Y0173633D01*
X0043771Y0173771D01*
X0043842Y0173907D01*
X0043917Y0174041D01*
X0043994Y0174173D01*
X0044076Y0174303D01*
X0044160Y0174431D01*
X0044248Y0174557D01*
X0044339Y0174680D01*
X0044433Y0174801D01*
X0044531Y0174919D01*
X0044631Y0175035D01*
X0044735Y0175148D01*
X0044841Y0175259D01*
X0044950Y0175367D01*
X0045062Y0175472D01*
X0045176Y0175573D01*
X0045294Y0175672D01*
X0045413Y0175768D01*
X0045535Y0175861D01*
X0045660Y0175950D01*
X0045787Y0176037D01*
X0045916Y0176119D01*
X0046047Y0176199D01*
X0046180Y0176275D01*
X0046315Y0176348D01*
X0046452Y0176417D01*
X0046591Y0176482D01*
X0046731Y0176544D01*
X0046873Y0176602D01*
X0047016Y0176657D01*
X0047161Y0176708D01*
X0047307Y0176755D01*
X0047454Y0176798D01*
X0047602Y0176837D01*
X0047751Y0176873D01*
X0047901Y0176904D01*
X0048052Y0176932D01*
X0048203Y0176956D01*
X0048356Y0176976D01*
X0048508Y0176992D01*
X0048661Y0177004D01*
X0048814Y0177012D01*
X0048967Y0177016D01*
X0049121Y0177016D01*
X0049274Y0177012D01*
X0049427Y0177004D01*
X0049580Y0176992D01*
X0049732Y0176976D01*
X0049885Y0176956D01*
X0050036Y0176932D01*
X0050187Y0176904D01*
X0050337Y0176873D01*
X0050486Y0176837D01*
X0050634Y0176798D01*
X0050781Y0176755D01*
X0050927Y0176708D01*
X0051072Y0176657D01*
X0051215Y0176602D01*
X0051357Y0176544D01*
X0051497Y0176482D01*
X0051636Y0176417D01*
X0051773Y0176348D01*
X0051908Y0176275D01*
X0052041Y0176199D01*
X0052172Y0176119D01*
X0052301Y0176037D01*
X0052428Y0175950D01*
X0052553Y0175861D01*
X0052675Y0175768D01*
X0052794Y0175672D01*
X0052912Y0175573D01*
X0053026Y0175472D01*
X0053138Y0175367D01*
X0053247Y0175259D01*
X0053353Y0175148D01*
X0053457Y0175035D01*
X0053557Y0174919D01*
X0053655Y0174801D01*
X0053749Y0174680D01*
X0053840Y0174557D01*
X0053928Y0174431D01*
X0054012Y0174303D01*
X0054094Y0174173D01*
X0054171Y0174041D01*
X0054246Y0173907D01*
X0054317Y0173771D01*
X0054384Y0173633D01*
X0054448Y0173493D01*
X0054508Y0173352D01*
X0054564Y0173210D01*
X0054617Y0173066D01*
X0054666Y0172920D01*
X0054711Y0172774D01*
X0054752Y0172626D01*
X0054789Y0172478D01*
X0054823Y0172328D01*
X0054853Y0172177D01*
X0054878Y0172026D01*
X0054900Y0171875D01*
X0054918Y0171722D01*
X0054932Y0171570D01*
X0054942Y0171417D01*
X0054948Y0171263D01*
X0054950Y0171110D01*
X0054948Y0170957D01*
X0054942Y0170803D01*
X0054932Y0170650D01*
X0054918Y0170498D01*
X0054900Y0170345D01*
X0054878Y0170194D01*
X0054853Y0170043D01*
X0054823Y0169892D01*
X0054789Y0169742D01*
X0054752Y0169594D01*
X0054711Y0169446D01*
X0054666Y0169300D01*
X0054617Y0169154D01*
X0054564Y0169010D01*
X0054508Y0168868D01*
X0054448Y0168727D01*
X0054384Y0168587D01*
X0054317Y0168449D01*
X0054246Y0168313D01*
X0054171Y0168179D01*
X0054094Y0168047D01*
X0054012Y0167917D01*
X0053928Y0167789D01*
X0053840Y0167663D01*
X0053749Y0167540D01*
X0053655Y0167419D01*
X0053557Y0167301D01*
X0053457Y0167185D01*
X0053353Y0167072D01*
X0053247Y0166961D01*
X0053138Y0166853D01*
X0053026Y0166748D01*
X0052912Y0166647D01*
X0052794Y0166548D01*
X0052675Y0166452D01*
X0052553Y0166359D01*
X0052428Y0166270D01*
X0052301Y0166183D01*
X0052172Y0166101D01*
X0052041Y0166021D01*
X0051908Y0165945D01*
X0051773Y0165872D01*
X0051636Y0165803D01*
X0051497Y0165738D01*
X0051357Y0165676D01*
X0051215Y0165618D01*
X0051072Y0165563D01*
X0050927Y0165512D01*
X0050781Y0165465D01*
X0050634Y0165422D01*
X0050486Y0165383D01*
X0050337Y0165347D01*
X0050187Y0165316D01*
X0050036Y0165288D01*
X0049885Y0165264D01*
X0049732Y0165244D01*
X0049580Y0165228D01*
X0049427Y0165216D01*
X0049274Y0165208D01*
X0049121Y0165204D01*
X0048967Y0165204D01*
X0048814Y0165208D01*
X0048661Y0165216D01*
X0048508Y0165228D01*
X0048356Y0165244D01*
X0048203Y0165264D01*
X0048052Y0165288D01*
X0047901Y0165316D01*
X0047751Y0165347D01*
X0047602Y0165383D01*
X0047454Y0165422D01*
X0047307Y0165465D01*
X0047161Y0165512D01*
X0047016Y0165563D01*
X0046873Y0165618D01*
X0046731Y0165676D01*
X0046591Y0165738D01*
X0046452Y0165803D01*
X0046315Y0165872D01*
X0046180Y0165945D01*
X0046047Y0166021D01*
X0045916Y0166101D01*
X0045787Y0166183D01*
X0045660Y0166270D01*
X0045535Y0166359D01*
X0045413Y0166452D01*
X0045294Y0166548D01*
X0045176Y0166647D01*
X0045062Y0166748D01*
X0044950Y0166853D01*
X0044841Y0166961D01*
X0044735Y0167072D01*
X0044631Y0167185D01*
X0044531Y0167301D01*
X0044433Y0167419D01*
X0044339Y0167540D01*
X0044248Y0167663D01*
X0044160Y0167789D01*
X0044076Y0167917D01*
X0043994Y0168047D01*
X0043917Y0168179D01*
X0043842Y0168313D01*
X0043771Y0168449D01*
X0043704Y0168587D01*
X0043640Y0168727D01*
X0043580Y0168868D01*
X0043524Y0169010D01*
X0043471Y0169154D01*
X0043422Y0169300D01*
X0043377Y0169446D01*
X0043336Y0169594D01*
X0043299Y0169742D01*
X0043265Y0169892D01*
X0043235Y0170043D01*
X0043210Y0170194D01*
X0043188Y0170345D01*
X0043170Y0170498D01*
X0043156Y0170650D01*
X0043146Y0170803D01*
X0043140Y0170957D01*
X0043138Y0171110D01*
X0007705Y0171110D02*
X0007707Y0171263D01*
X0007713Y0171417D01*
X0007723Y0171570D01*
X0007737Y0171722D01*
X0007755Y0171875D01*
X0007777Y0172026D01*
X0007802Y0172177D01*
X0007832Y0172328D01*
X0007866Y0172478D01*
X0007903Y0172626D01*
X0007944Y0172774D01*
X0007989Y0172920D01*
X0008038Y0173066D01*
X0008091Y0173210D01*
X0008147Y0173352D01*
X0008207Y0173493D01*
X0008271Y0173633D01*
X0008338Y0173771D01*
X0008409Y0173907D01*
X0008484Y0174041D01*
X0008561Y0174173D01*
X0008643Y0174303D01*
X0008727Y0174431D01*
X0008815Y0174557D01*
X0008906Y0174680D01*
X0009000Y0174801D01*
X0009098Y0174919D01*
X0009198Y0175035D01*
X0009302Y0175148D01*
X0009408Y0175259D01*
X0009517Y0175367D01*
X0009629Y0175472D01*
X0009743Y0175573D01*
X0009861Y0175672D01*
X0009980Y0175768D01*
X0010102Y0175861D01*
X0010227Y0175950D01*
X0010354Y0176037D01*
X0010483Y0176119D01*
X0010614Y0176199D01*
X0010747Y0176275D01*
X0010882Y0176348D01*
X0011019Y0176417D01*
X0011158Y0176482D01*
X0011298Y0176544D01*
X0011440Y0176602D01*
X0011583Y0176657D01*
X0011728Y0176708D01*
X0011874Y0176755D01*
X0012021Y0176798D01*
X0012169Y0176837D01*
X0012318Y0176873D01*
X0012468Y0176904D01*
X0012619Y0176932D01*
X0012770Y0176956D01*
X0012923Y0176976D01*
X0013075Y0176992D01*
X0013228Y0177004D01*
X0013381Y0177012D01*
X0013534Y0177016D01*
X0013688Y0177016D01*
X0013841Y0177012D01*
X0013994Y0177004D01*
X0014147Y0176992D01*
X0014299Y0176976D01*
X0014452Y0176956D01*
X0014603Y0176932D01*
X0014754Y0176904D01*
X0014904Y0176873D01*
X0015053Y0176837D01*
X0015201Y0176798D01*
X0015348Y0176755D01*
X0015494Y0176708D01*
X0015639Y0176657D01*
X0015782Y0176602D01*
X0015924Y0176544D01*
X0016064Y0176482D01*
X0016203Y0176417D01*
X0016340Y0176348D01*
X0016475Y0176275D01*
X0016608Y0176199D01*
X0016739Y0176119D01*
X0016868Y0176037D01*
X0016995Y0175950D01*
X0017120Y0175861D01*
X0017242Y0175768D01*
X0017361Y0175672D01*
X0017479Y0175573D01*
X0017593Y0175472D01*
X0017705Y0175367D01*
X0017814Y0175259D01*
X0017920Y0175148D01*
X0018024Y0175035D01*
X0018124Y0174919D01*
X0018222Y0174801D01*
X0018316Y0174680D01*
X0018407Y0174557D01*
X0018495Y0174431D01*
X0018579Y0174303D01*
X0018661Y0174173D01*
X0018738Y0174041D01*
X0018813Y0173907D01*
X0018884Y0173771D01*
X0018951Y0173633D01*
X0019015Y0173493D01*
X0019075Y0173352D01*
X0019131Y0173210D01*
X0019184Y0173066D01*
X0019233Y0172920D01*
X0019278Y0172774D01*
X0019319Y0172626D01*
X0019356Y0172478D01*
X0019390Y0172328D01*
X0019420Y0172177D01*
X0019445Y0172026D01*
X0019467Y0171875D01*
X0019485Y0171722D01*
X0019499Y0171570D01*
X0019509Y0171417D01*
X0019515Y0171263D01*
X0019517Y0171110D01*
X0019515Y0170957D01*
X0019509Y0170803D01*
X0019499Y0170650D01*
X0019485Y0170498D01*
X0019467Y0170345D01*
X0019445Y0170194D01*
X0019420Y0170043D01*
X0019390Y0169892D01*
X0019356Y0169742D01*
X0019319Y0169594D01*
X0019278Y0169446D01*
X0019233Y0169300D01*
X0019184Y0169154D01*
X0019131Y0169010D01*
X0019075Y0168868D01*
X0019015Y0168727D01*
X0018951Y0168587D01*
X0018884Y0168449D01*
X0018813Y0168313D01*
X0018738Y0168179D01*
X0018661Y0168047D01*
X0018579Y0167917D01*
X0018495Y0167789D01*
X0018407Y0167663D01*
X0018316Y0167540D01*
X0018222Y0167419D01*
X0018124Y0167301D01*
X0018024Y0167185D01*
X0017920Y0167072D01*
X0017814Y0166961D01*
X0017705Y0166853D01*
X0017593Y0166748D01*
X0017479Y0166647D01*
X0017361Y0166548D01*
X0017242Y0166452D01*
X0017120Y0166359D01*
X0016995Y0166270D01*
X0016868Y0166183D01*
X0016739Y0166101D01*
X0016608Y0166021D01*
X0016475Y0165945D01*
X0016340Y0165872D01*
X0016203Y0165803D01*
X0016064Y0165738D01*
X0015924Y0165676D01*
X0015782Y0165618D01*
X0015639Y0165563D01*
X0015494Y0165512D01*
X0015348Y0165465D01*
X0015201Y0165422D01*
X0015053Y0165383D01*
X0014904Y0165347D01*
X0014754Y0165316D01*
X0014603Y0165288D01*
X0014452Y0165264D01*
X0014299Y0165244D01*
X0014147Y0165228D01*
X0013994Y0165216D01*
X0013841Y0165208D01*
X0013688Y0165204D01*
X0013534Y0165204D01*
X0013381Y0165208D01*
X0013228Y0165216D01*
X0013075Y0165228D01*
X0012923Y0165244D01*
X0012770Y0165264D01*
X0012619Y0165288D01*
X0012468Y0165316D01*
X0012318Y0165347D01*
X0012169Y0165383D01*
X0012021Y0165422D01*
X0011874Y0165465D01*
X0011728Y0165512D01*
X0011583Y0165563D01*
X0011440Y0165618D01*
X0011298Y0165676D01*
X0011158Y0165738D01*
X0011019Y0165803D01*
X0010882Y0165872D01*
X0010747Y0165945D01*
X0010614Y0166021D01*
X0010483Y0166101D01*
X0010354Y0166183D01*
X0010227Y0166270D01*
X0010102Y0166359D01*
X0009980Y0166452D01*
X0009861Y0166548D01*
X0009743Y0166647D01*
X0009629Y0166748D01*
X0009517Y0166853D01*
X0009408Y0166961D01*
X0009302Y0167072D01*
X0009198Y0167185D01*
X0009098Y0167301D01*
X0009000Y0167419D01*
X0008906Y0167540D01*
X0008815Y0167663D01*
X0008727Y0167789D01*
X0008643Y0167917D01*
X0008561Y0168047D01*
X0008484Y0168179D01*
X0008409Y0168313D01*
X0008338Y0168449D01*
X0008271Y0168587D01*
X0008207Y0168727D01*
X0008147Y0168868D01*
X0008091Y0169010D01*
X0008038Y0169154D01*
X0007989Y0169300D01*
X0007944Y0169446D01*
X0007903Y0169594D01*
X0007866Y0169742D01*
X0007832Y0169892D01*
X0007802Y0170043D01*
X0007777Y0170194D01*
X0007755Y0170345D01*
X0007737Y0170498D01*
X0007723Y0170650D01*
X0007713Y0170803D01*
X0007707Y0170957D01*
X0007705Y0171110D01*
D11*
X0011800Y0045205D03*
X0011800Y0034181D03*
X0049300Y0032744D03*
X0049300Y0043768D03*
D12*
X0030540Y0108531D03*
X0026800Y0117980D03*
X0023060Y0108531D03*
D13*
X0021288Y0095756D03*
X0032312Y0095756D03*
X0032312Y0130756D03*
X0021288Y0130756D03*
D14*
X0024300Y0053768D03*
X0024300Y0042744D03*
X0036800Y0042744D03*
X0036800Y0053768D03*
D15*
X0028572Y0022094D03*
X0026013Y0022094D03*
X0023454Y0022094D03*
X0020894Y0022094D03*
X0018335Y0022094D03*
D16*
X0019517Y0011465D03*
X0027391Y0011465D03*
M02*
