%
M48
M72
T01C0.02362
T02C0.04000
T03C0.11811
%
T01
X26800Y145051
X41800Y145051
X51800Y125051
X44300Y92551
X46406Y62551
X56800Y40051
X39300Y27551
X31800Y87551
X19300Y92551
X8552Y27551
T02
X12036Y152551
X22036Y152551
X32036Y152551
X42036Y152551
X52036Y152551
X46406Y80169
X46406Y70169
X36406Y70169
X36406Y80169
X26406Y80169
X26406Y70169
X16406Y70169
X16406Y80169
T03
X49044Y21862
X49044Y175406
X13611Y175406
M30
