%
M48
M72
T01C0.02362
T02C0.03937
T03C0.04000
T04C0.11811
%
T01
X26800Y140756
X41800Y140756
X51800Y120756
X44300Y88256
X46406Y58256
X56800Y35756
X31800Y83256
X19300Y88256
X18335Y29378
T02
X33296Y22094
X37233Y11465
X13611Y22094
X9674Y11465
T03
X16406Y65874
X16406Y75874
X26406Y75874
X26406Y65874
X36406Y65874
X36406Y75874
X46406Y75874
X46406Y65874
X42036Y148256
X52036Y148256
X32036Y148256
X22036Y148256
X12036Y148256
T04
X13611Y171110
X49044Y171110
X49044Y17567
M30
