G75*
%MOIN*%
%OFA0B0*%
%FSLAX25Y25*%
%IPPOS*%
%LPD*%
%AMOC8*
5,1,8,0,0,1.08239X$1,22.5*
%
%ADD10C,0.00000*%
%ADD11R,0.07087X0.06299*%
%ADD12R,0.01378X0.05512*%
%ADD13R,0.07087X0.07480*%
%ADD14R,0.07480X0.07480*%
%ADD15OC8,0.07400*%
%ADD16C,0.07400*%
%ADD17R,0.03543X0.04724*%
%ADD18R,0.06299X0.07874*%
%ADD19R,0.07874X0.06299*%
%ADD20C,0.01600*%
%ADD21R,0.03962X0.03962*%
D10*
X0001800Y0010051D02*
X0001800Y0187591D01*
X0060855Y0187591D01*
X0060855Y0010051D01*
X0001800Y0010051D01*
X0043138Y0021862D02*
X0043140Y0022015D01*
X0043146Y0022169D01*
X0043156Y0022322D01*
X0043170Y0022474D01*
X0043188Y0022627D01*
X0043210Y0022778D01*
X0043235Y0022929D01*
X0043265Y0023080D01*
X0043299Y0023230D01*
X0043336Y0023378D01*
X0043377Y0023526D01*
X0043422Y0023672D01*
X0043471Y0023818D01*
X0043524Y0023962D01*
X0043580Y0024104D01*
X0043640Y0024245D01*
X0043704Y0024385D01*
X0043771Y0024523D01*
X0043842Y0024659D01*
X0043917Y0024793D01*
X0043994Y0024925D01*
X0044076Y0025055D01*
X0044160Y0025183D01*
X0044248Y0025309D01*
X0044339Y0025432D01*
X0044433Y0025553D01*
X0044531Y0025671D01*
X0044631Y0025787D01*
X0044735Y0025900D01*
X0044841Y0026011D01*
X0044950Y0026119D01*
X0045062Y0026224D01*
X0045176Y0026325D01*
X0045294Y0026424D01*
X0045413Y0026520D01*
X0045535Y0026613D01*
X0045660Y0026702D01*
X0045787Y0026789D01*
X0045916Y0026871D01*
X0046047Y0026951D01*
X0046180Y0027027D01*
X0046315Y0027100D01*
X0046452Y0027169D01*
X0046591Y0027234D01*
X0046731Y0027296D01*
X0046873Y0027354D01*
X0047016Y0027409D01*
X0047161Y0027460D01*
X0047307Y0027507D01*
X0047454Y0027550D01*
X0047602Y0027589D01*
X0047751Y0027625D01*
X0047901Y0027656D01*
X0048052Y0027684D01*
X0048203Y0027708D01*
X0048356Y0027728D01*
X0048508Y0027744D01*
X0048661Y0027756D01*
X0048814Y0027764D01*
X0048967Y0027768D01*
X0049121Y0027768D01*
X0049274Y0027764D01*
X0049427Y0027756D01*
X0049580Y0027744D01*
X0049732Y0027728D01*
X0049885Y0027708D01*
X0050036Y0027684D01*
X0050187Y0027656D01*
X0050337Y0027625D01*
X0050486Y0027589D01*
X0050634Y0027550D01*
X0050781Y0027507D01*
X0050927Y0027460D01*
X0051072Y0027409D01*
X0051215Y0027354D01*
X0051357Y0027296D01*
X0051497Y0027234D01*
X0051636Y0027169D01*
X0051773Y0027100D01*
X0051908Y0027027D01*
X0052041Y0026951D01*
X0052172Y0026871D01*
X0052301Y0026789D01*
X0052428Y0026702D01*
X0052553Y0026613D01*
X0052675Y0026520D01*
X0052794Y0026424D01*
X0052912Y0026325D01*
X0053026Y0026224D01*
X0053138Y0026119D01*
X0053247Y0026011D01*
X0053353Y0025900D01*
X0053457Y0025787D01*
X0053557Y0025671D01*
X0053655Y0025553D01*
X0053749Y0025432D01*
X0053840Y0025309D01*
X0053928Y0025183D01*
X0054012Y0025055D01*
X0054094Y0024925D01*
X0054171Y0024793D01*
X0054246Y0024659D01*
X0054317Y0024523D01*
X0054384Y0024385D01*
X0054448Y0024245D01*
X0054508Y0024104D01*
X0054564Y0023962D01*
X0054617Y0023818D01*
X0054666Y0023672D01*
X0054711Y0023526D01*
X0054752Y0023378D01*
X0054789Y0023230D01*
X0054823Y0023080D01*
X0054853Y0022929D01*
X0054878Y0022778D01*
X0054900Y0022627D01*
X0054918Y0022474D01*
X0054932Y0022322D01*
X0054942Y0022169D01*
X0054948Y0022015D01*
X0054950Y0021862D01*
X0054948Y0021709D01*
X0054942Y0021555D01*
X0054932Y0021402D01*
X0054918Y0021250D01*
X0054900Y0021097D01*
X0054878Y0020946D01*
X0054853Y0020795D01*
X0054823Y0020644D01*
X0054789Y0020494D01*
X0054752Y0020346D01*
X0054711Y0020198D01*
X0054666Y0020052D01*
X0054617Y0019906D01*
X0054564Y0019762D01*
X0054508Y0019620D01*
X0054448Y0019479D01*
X0054384Y0019339D01*
X0054317Y0019201D01*
X0054246Y0019065D01*
X0054171Y0018931D01*
X0054094Y0018799D01*
X0054012Y0018669D01*
X0053928Y0018541D01*
X0053840Y0018415D01*
X0053749Y0018292D01*
X0053655Y0018171D01*
X0053557Y0018053D01*
X0053457Y0017937D01*
X0053353Y0017824D01*
X0053247Y0017713D01*
X0053138Y0017605D01*
X0053026Y0017500D01*
X0052912Y0017399D01*
X0052794Y0017300D01*
X0052675Y0017204D01*
X0052553Y0017111D01*
X0052428Y0017022D01*
X0052301Y0016935D01*
X0052172Y0016853D01*
X0052041Y0016773D01*
X0051908Y0016697D01*
X0051773Y0016624D01*
X0051636Y0016555D01*
X0051497Y0016490D01*
X0051357Y0016428D01*
X0051215Y0016370D01*
X0051072Y0016315D01*
X0050927Y0016264D01*
X0050781Y0016217D01*
X0050634Y0016174D01*
X0050486Y0016135D01*
X0050337Y0016099D01*
X0050187Y0016068D01*
X0050036Y0016040D01*
X0049885Y0016016D01*
X0049732Y0015996D01*
X0049580Y0015980D01*
X0049427Y0015968D01*
X0049274Y0015960D01*
X0049121Y0015956D01*
X0048967Y0015956D01*
X0048814Y0015960D01*
X0048661Y0015968D01*
X0048508Y0015980D01*
X0048356Y0015996D01*
X0048203Y0016016D01*
X0048052Y0016040D01*
X0047901Y0016068D01*
X0047751Y0016099D01*
X0047602Y0016135D01*
X0047454Y0016174D01*
X0047307Y0016217D01*
X0047161Y0016264D01*
X0047016Y0016315D01*
X0046873Y0016370D01*
X0046731Y0016428D01*
X0046591Y0016490D01*
X0046452Y0016555D01*
X0046315Y0016624D01*
X0046180Y0016697D01*
X0046047Y0016773D01*
X0045916Y0016853D01*
X0045787Y0016935D01*
X0045660Y0017022D01*
X0045535Y0017111D01*
X0045413Y0017204D01*
X0045294Y0017300D01*
X0045176Y0017399D01*
X0045062Y0017500D01*
X0044950Y0017605D01*
X0044841Y0017713D01*
X0044735Y0017824D01*
X0044631Y0017937D01*
X0044531Y0018053D01*
X0044433Y0018171D01*
X0044339Y0018292D01*
X0044248Y0018415D01*
X0044160Y0018541D01*
X0044076Y0018669D01*
X0043994Y0018799D01*
X0043917Y0018931D01*
X0043842Y0019065D01*
X0043771Y0019201D01*
X0043704Y0019339D01*
X0043640Y0019479D01*
X0043580Y0019620D01*
X0043524Y0019762D01*
X0043471Y0019906D01*
X0043422Y0020052D01*
X0043377Y0020198D01*
X0043336Y0020346D01*
X0043299Y0020494D01*
X0043265Y0020644D01*
X0043235Y0020795D01*
X0043210Y0020946D01*
X0043188Y0021097D01*
X0043170Y0021250D01*
X0043156Y0021402D01*
X0043146Y0021555D01*
X0043140Y0021709D01*
X0043138Y0021862D01*
X0043138Y0175406D02*
X0043140Y0175559D01*
X0043146Y0175713D01*
X0043156Y0175866D01*
X0043170Y0176018D01*
X0043188Y0176171D01*
X0043210Y0176322D01*
X0043235Y0176473D01*
X0043265Y0176624D01*
X0043299Y0176774D01*
X0043336Y0176922D01*
X0043377Y0177070D01*
X0043422Y0177216D01*
X0043471Y0177362D01*
X0043524Y0177506D01*
X0043580Y0177648D01*
X0043640Y0177789D01*
X0043704Y0177929D01*
X0043771Y0178067D01*
X0043842Y0178203D01*
X0043917Y0178337D01*
X0043994Y0178469D01*
X0044076Y0178599D01*
X0044160Y0178727D01*
X0044248Y0178853D01*
X0044339Y0178976D01*
X0044433Y0179097D01*
X0044531Y0179215D01*
X0044631Y0179331D01*
X0044735Y0179444D01*
X0044841Y0179555D01*
X0044950Y0179663D01*
X0045062Y0179768D01*
X0045176Y0179869D01*
X0045294Y0179968D01*
X0045413Y0180064D01*
X0045535Y0180157D01*
X0045660Y0180246D01*
X0045787Y0180333D01*
X0045916Y0180415D01*
X0046047Y0180495D01*
X0046180Y0180571D01*
X0046315Y0180644D01*
X0046452Y0180713D01*
X0046591Y0180778D01*
X0046731Y0180840D01*
X0046873Y0180898D01*
X0047016Y0180953D01*
X0047161Y0181004D01*
X0047307Y0181051D01*
X0047454Y0181094D01*
X0047602Y0181133D01*
X0047751Y0181169D01*
X0047901Y0181200D01*
X0048052Y0181228D01*
X0048203Y0181252D01*
X0048356Y0181272D01*
X0048508Y0181288D01*
X0048661Y0181300D01*
X0048814Y0181308D01*
X0048967Y0181312D01*
X0049121Y0181312D01*
X0049274Y0181308D01*
X0049427Y0181300D01*
X0049580Y0181288D01*
X0049732Y0181272D01*
X0049885Y0181252D01*
X0050036Y0181228D01*
X0050187Y0181200D01*
X0050337Y0181169D01*
X0050486Y0181133D01*
X0050634Y0181094D01*
X0050781Y0181051D01*
X0050927Y0181004D01*
X0051072Y0180953D01*
X0051215Y0180898D01*
X0051357Y0180840D01*
X0051497Y0180778D01*
X0051636Y0180713D01*
X0051773Y0180644D01*
X0051908Y0180571D01*
X0052041Y0180495D01*
X0052172Y0180415D01*
X0052301Y0180333D01*
X0052428Y0180246D01*
X0052553Y0180157D01*
X0052675Y0180064D01*
X0052794Y0179968D01*
X0052912Y0179869D01*
X0053026Y0179768D01*
X0053138Y0179663D01*
X0053247Y0179555D01*
X0053353Y0179444D01*
X0053457Y0179331D01*
X0053557Y0179215D01*
X0053655Y0179097D01*
X0053749Y0178976D01*
X0053840Y0178853D01*
X0053928Y0178727D01*
X0054012Y0178599D01*
X0054094Y0178469D01*
X0054171Y0178337D01*
X0054246Y0178203D01*
X0054317Y0178067D01*
X0054384Y0177929D01*
X0054448Y0177789D01*
X0054508Y0177648D01*
X0054564Y0177506D01*
X0054617Y0177362D01*
X0054666Y0177216D01*
X0054711Y0177070D01*
X0054752Y0176922D01*
X0054789Y0176774D01*
X0054823Y0176624D01*
X0054853Y0176473D01*
X0054878Y0176322D01*
X0054900Y0176171D01*
X0054918Y0176018D01*
X0054932Y0175866D01*
X0054942Y0175713D01*
X0054948Y0175559D01*
X0054950Y0175406D01*
X0054948Y0175253D01*
X0054942Y0175099D01*
X0054932Y0174946D01*
X0054918Y0174794D01*
X0054900Y0174641D01*
X0054878Y0174490D01*
X0054853Y0174339D01*
X0054823Y0174188D01*
X0054789Y0174038D01*
X0054752Y0173890D01*
X0054711Y0173742D01*
X0054666Y0173596D01*
X0054617Y0173450D01*
X0054564Y0173306D01*
X0054508Y0173164D01*
X0054448Y0173023D01*
X0054384Y0172883D01*
X0054317Y0172745D01*
X0054246Y0172609D01*
X0054171Y0172475D01*
X0054094Y0172343D01*
X0054012Y0172213D01*
X0053928Y0172085D01*
X0053840Y0171959D01*
X0053749Y0171836D01*
X0053655Y0171715D01*
X0053557Y0171597D01*
X0053457Y0171481D01*
X0053353Y0171368D01*
X0053247Y0171257D01*
X0053138Y0171149D01*
X0053026Y0171044D01*
X0052912Y0170943D01*
X0052794Y0170844D01*
X0052675Y0170748D01*
X0052553Y0170655D01*
X0052428Y0170566D01*
X0052301Y0170479D01*
X0052172Y0170397D01*
X0052041Y0170317D01*
X0051908Y0170241D01*
X0051773Y0170168D01*
X0051636Y0170099D01*
X0051497Y0170034D01*
X0051357Y0169972D01*
X0051215Y0169914D01*
X0051072Y0169859D01*
X0050927Y0169808D01*
X0050781Y0169761D01*
X0050634Y0169718D01*
X0050486Y0169679D01*
X0050337Y0169643D01*
X0050187Y0169612D01*
X0050036Y0169584D01*
X0049885Y0169560D01*
X0049732Y0169540D01*
X0049580Y0169524D01*
X0049427Y0169512D01*
X0049274Y0169504D01*
X0049121Y0169500D01*
X0048967Y0169500D01*
X0048814Y0169504D01*
X0048661Y0169512D01*
X0048508Y0169524D01*
X0048356Y0169540D01*
X0048203Y0169560D01*
X0048052Y0169584D01*
X0047901Y0169612D01*
X0047751Y0169643D01*
X0047602Y0169679D01*
X0047454Y0169718D01*
X0047307Y0169761D01*
X0047161Y0169808D01*
X0047016Y0169859D01*
X0046873Y0169914D01*
X0046731Y0169972D01*
X0046591Y0170034D01*
X0046452Y0170099D01*
X0046315Y0170168D01*
X0046180Y0170241D01*
X0046047Y0170317D01*
X0045916Y0170397D01*
X0045787Y0170479D01*
X0045660Y0170566D01*
X0045535Y0170655D01*
X0045413Y0170748D01*
X0045294Y0170844D01*
X0045176Y0170943D01*
X0045062Y0171044D01*
X0044950Y0171149D01*
X0044841Y0171257D01*
X0044735Y0171368D01*
X0044631Y0171481D01*
X0044531Y0171597D01*
X0044433Y0171715D01*
X0044339Y0171836D01*
X0044248Y0171959D01*
X0044160Y0172085D01*
X0044076Y0172213D01*
X0043994Y0172343D01*
X0043917Y0172475D01*
X0043842Y0172609D01*
X0043771Y0172745D01*
X0043704Y0172883D01*
X0043640Y0173023D01*
X0043580Y0173164D01*
X0043524Y0173306D01*
X0043471Y0173450D01*
X0043422Y0173596D01*
X0043377Y0173742D01*
X0043336Y0173890D01*
X0043299Y0174038D01*
X0043265Y0174188D01*
X0043235Y0174339D01*
X0043210Y0174490D01*
X0043188Y0174641D01*
X0043170Y0174794D01*
X0043156Y0174946D01*
X0043146Y0175099D01*
X0043140Y0175253D01*
X0043138Y0175406D01*
X0007705Y0175406D02*
X0007707Y0175559D01*
X0007713Y0175713D01*
X0007723Y0175866D01*
X0007737Y0176018D01*
X0007755Y0176171D01*
X0007777Y0176322D01*
X0007802Y0176473D01*
X0007832Y0176624D01*
X0007866Y0176774D01*
X0007903Y0176922D01*
X0007944Y0177070D01*
X0007989Y0177216D01*
X0008038Y0177362D01*
X0008091Y0177506D01*
X0008147Y0177648D01*
X0008207Y0177789D01*
X0008271Y0177929D01*
X0008338Y0178067D01*
X0008409Y0178203D01*
X0008484Y0178337D01*
X0008561Y0178469D01*
X0008643Y0178599D01*
X0008727Y0178727D01*
X0008815Y0178853D01*
X0008906Y0178976D01*
X0009000Y0179097D01*
X0009098Y0179215D01*
X0009198Y0179331D01*
X0009302Y0179444D01*
X0009408Y0179555D01*
X0009517Y0179663D01*
X0009629Y0179768D01*
X0009743Y0179869D01*
X0009861Y0179968D01*
X0009980Y0180064D01*
X0010102Y0180157D01*
X0010227Y0180246D01*
X0010354Y0180333D01*
X0010483Y0180415D01*
X0010614Y0180495D01*
X0010747Y0180571D01*
X0010882Y0180644D01*
X0011019Y0180713D01*
X0011158Y0180778D01*
X0011298Y0180840D01*
X0011440Y0180898D01*
X0011583Y0180953D01*
X0011728Y0181004D01*
X0011874Y0181051D01*
X0012021Y0181094D01*
X0012169Y0181133D01*
X0012318Y0181169D01*
X0012468Y0181200D01*
X0012619Y0181228D01*
X0012770Y0181252D01*
X0012923Y0181272D01*
X0013075Y0181288D01*
X0013228Y0181300D01*
X0013381Y0181308D01*
X0013534Y0181312D01*
X0013688Y0181312D01*
X0013841Y0181308D01*
X0013994Y0181300D01*
X0014147Y0181288D01*
X0014299Y0181272D01*
X0014452Y0181252D01*
X0014603Y0181228D01*
X0014754Y0181200D01*
X0014904Y0181169D01*
X0015053Y0181133D01*
X0015201Y0181094D01*
X0015348Y0181051D01*
X0015494Y0181004D01*
X0015639Y0180953D01*
X0015782Y0180898D01*
X0015924Y0180840D01*
X0016064Y0180778D01*
X0016203Y0180713D01*
X0016340Y0180644D01*
X0016475Y0180571D01*
X0016608Y0180495D01*
X0016739Y0180415D01*
X0016868Y0180333D01*
X0016995Y0180246D01*
X0017120Y0180157D01*
X0017242Y0180064D01*
X0017361Y0179968D01*
X0017479Y0179869D01*
X0017593Y0179768D01*
X0017705Y0179663D01*
X0017814Y0179555D01*
X0017920Y0179444D01*
X0018024Y0179331D01*
X0018124Y0179215D01*
X0018222Y0179097D01*
X0018316Y0178976D01*
X0018407Y0178853D01*
X0018495Y0178727D01*
X0018579Y0178599D01*
X0018661Y0178469D01*
X0018738Y0178337D01*
X0018813Y0178203D01*
X0018884Y0178067D01*
X0018951Y0177929D01*
X0019015Y0177789D01*
X0019075Y0177648D01*
X0019131Y0177506D01*
X0019184Y0177362D01*
X0019233Y0177216D01*
X0019278Y0177070D01*
X0019319Y0176922D01*
X0019356Y0176774D01*
X0019390Y0176624D01*
X0019420Y0176473D01*
X0019445Y0176322D01*
X0019467Y0176171D01*
X0019485Y0176018D01*
X0019499Y0175866D01*
X0019509Y0175713D01*
X0019515Y0175559D01*
X0019517Y0175406D01*
X0019515Y0175253D01*
X0019509Y0175099D01*
X0019499Y0174946D01*
X0019485Y0174794D01*
X0019467Y0174641D01*
X0019445Y0174490D01*
X0019420Y0174339D01*
X0019390Y0174188D01*
X0019356Y0174038D01*
X0019319Y0173890D01*
X0019278Y0173742D01*
X0019233Y0173596D01*
X0019184Y0173450D01*
X0019131Y0173306D01*
X0019075Y0173164D01*
X0019015Y0173023D01*
X0018951Y0172883D01*
X0018884Y0172745D01*
X0018813Y0172609D01*
X0018738Y0172475D01*
X0018661Y0172343D01*
X0018579Y0172213D01*
X0018495Y0172085D01*
X0018407Y0171959D01*
X0018316Y0171836D01*
X0018222Y0171715D01*
X0018124Y0171597D01*
X0018024Y0171481D01*
X0017920Y0171368D01*
X0017814Y0171257D01*
X0017705Y0171149D01*
X0017593Y0171044D01*
X0017479Y0170943D01*
X0017361Y0170844D01*
X0017242Y0170748D01*
X0017120Y0170655D01*
X0016995Y0170566D01*
X0016868Y0170479D01*
X0016739Y0170397D01*
X0016608Y0170317D01*
X0016475Y0170241D01*
X0016340Y0170168D01*
X0016203Y0170099D01*
X0016064Y0170034D01*
X0015924Y0169972D01*
X0015782Y0169914D01*
X0015639Y0169859D01*
X0015494Y0169808D01*
X0015348Y0169761D01*
X0015201Y0169718D01*
X0015053Y0169679D01*
X0014904Y0169643D01*
X0014754Y0169612D01*
X0014603Y0169584D01*
X0014452Y0169560D01*
X0014299Y0169540D01*
X0014147Y0169524D01*
X0013994Y0169512D01*
X0013841Y0169504D01*
X0013688Y0169500D01*
X0013534Y0169500D01*
X0013381Y0169504D01*
X0013228Y0169512D01*
X0013075Y0169524D01*
X0012923Y0169540D01*
X0012770Y0169560D01*
X0012619Y0169584D01*
X0012468Y0169612D01*
X0012318Y0169643D01*
X0012169Y0169679D01*
X0012021Y0169718D01*
X0011874Y0169761D01*
X0011728Y0169808D01*
X0011583Y0169859D01*
X0011440Y0169914D01*
X0011298Y0169972D01*
X0011158Y0170034D01*
X0011019Y0170099D01*
X0010882Y0170168D01*
X0010747Y0170241D01*
X0010614Y0170317D01*
X0010483Y0170397D01*
X0010354Y0170479D01*
X0010227Y0170566D01*
X0010102Y0170655D01*
X0009980Y0170748D01*
X0009861Y0170844D01*
X0009743Y0170943D01*
X0009629Y0171044D01*
X0009517Y0171149D01*
X0009408Y0171257D01*
X0009302Y0171368D01*
X0009198Y0171481D01*
X0009098Y0171597D01*
X0009000Y0171715D01*
X0008906Y0171836D01*
X0008815Y0171959D01*
X0008727Y0172085D01*
X0008643Y0172213D01*
X0008561Y0172343D01*
X0008484Y0172475D01*
X0008409Y0172609D01*
X0008338Y0172745D01*
X0008271Y0172883D01*
X0008207Y0173023D01*
X0008147Y0173164D01*
X0008091Y0173306D01*
X0008038Y0173450D01*
X0007989Y0173596D01*
X0007944Y0173742D01*
X0007903Y0173890D01*
X0007866Y0174038D01*
X0007832Y0174188D01*
X0007802Y0174339D01*
X0007777Y0174490D01*
X0007755Y0174641D01*
X0007737Y0174794D01*
X0007723Y0174946D01*
X0007713Y0175099D01*
X0007707Y0175253D01*
X0007705Y0175406D01*
D11*
X0011800Y0045563D03*
X0011800Y0034539D03*
X0049300Y0034539D03*
X0049300Y0045563D03*
D12*
X0029418Y0025933D03*
X0026859Y0025933D03*
X0024300Y0025933D03*
X0021741Y0025933D03*
X0019182Y0025933D03*
D13*
X0008552Y0015500D03*
X0040048Y0015500D03*
D14*
X0029300Y0015500D03*
X0019300Y0015500D03*
D15*
X0016406Y0070169D03*
X0016406Y0080169D03*
X0026406Y0080169D03*
X0026406Y0070169D03*
X0036406Y0070169D03*
X0036406Y0080169D03*
X0046406Y0080169D03*
X0046406Y0070169D03*
D16*
X0042036Y0152551D03*
X0032036Y0152551D03*
X0022036Y0152551D03*
X0012036Y0152551D03*
X0052036Y0152551D03*
D17*
X0030540Y0112827D03*
X0026800Y0122276D03*
X0023060Y0112827D03*
D18*
X0021288Y0100051D03*
X0032312Y0100051D03*
X0032312Y0135051D03*
X0021288Y0135051D03*
D19*
X0024300Y0058063D03*
X0024300Y0047039D03*
X0036800Y0047039D03*
X0036800Y0058063D03*
D20*
X0036406Y0058457D01*
X0036406Y0070169D01*
X0036406Y0080169D02*
X0036406Y0084657D01*
X0044300Y0092551D01*
X0044279Y0088570D02*
X0047110Y0088570D01*
X0048281Y0089742D01*
X0048281Y0095361D01*
X0047110Y0096532D01*
X0041490Y0096532D01*
X0040319Y0095361D01*
X0040319Y0092530D01*
X0035781Y0087992D01*
X0035781Y0090361D01*
X0034610Y0091532D01*
X0034600Y0091532D01*
X0034600Y0094114D01*
X0036290Y0094114D01*
X0037461Y0095286D01*
X0037461Y0104817D01*
X0036588Y0105690D01*
X0036588Y0110136D01*
X0036162Y0111165D01*
X0035374Y0111952D01*
X0034312Y0113015D01*
X0034312Y0116017D01*
X0033140Y0117189D01*
X0027940Y0117189D01*
X0026800Y0116049D01*
X0025660Y0117189D01*
X0020460Y0117189D01*
X0019288Y0116017D01*
X0019288Y0113015D01*
X0018914Y0112641D01*
X0018488Y0111612D01*
X0018488Y0105988D01*
X0017310Y0105988D01*
X0016139Y0104817D01*
X0016139Y0096180D01*
X0015319Y0095361D01*
X0015319Y0092530D01*
X0006926Y0084137D01*
X0006600Y0083349D01*
X0006600Y0150781D01*
X0007204Y0149322D01*
X0008807Y0147719D01*
X0010902Y0146851D01*
X0013170Y0146851D01*
X0015265Y0147719D01*
X0016868Y0149322D01*
X0017036Y0149727D01*
X0017204Y0149322D01*
X0018488Y0148038D01*
X0018488Y0140988D01*
X0017310Y0140988D01*
X0016139Y0139817D01*
X0016139Y0130286D01*
X0017310Y0129114D01*
X0018488Y0129114D01*
X0018488Y0127230D01*
X0018914Y0126201D01*
X0023028Y0122087D01*
X0023028Y0119085D01*
X0024200Y0117913D01*
X0029400Y0117913D01*
X0030572Y0119085D01*
X0030572Y0125466D01*
X0029400Y0126638D01*
X0026398Y0126638D01*
X0024088Y0128947D01*
X0024088Y0129114D01*
X0025266Y0129114D01*
X0026438Y0130286D01*
X0026438Y0139817D01*
X0025266Y0140988D01*
X0024088Y0140988D01*
X0024088Y0141070D01*
X0029610Y0141070D01*
X0030781Y0142242D01*
X0030781Y0142251D01*
X0035552Y0142251D01*
X0034289Y0140988D01*
X0028334Y0140988D01*
X0027162Y0139817D01*
X0027162Y0130286D01*
X0028334Y0129114D01*
X0036290Y0129114D01*
X0037461Y0130286D01*
X0037461Y0136241D01*
X0042291Y0141070D01*
X0044610Y0141070D01*
X0045781Y0142242D01*
X0045781Y0142251D01*
X0054000Y0142251D01*
X0054000Y0050101D01*
X0053949Y0050153D01*
X0053538Y0050390D01*
X0053080Y0050513D01*
X0050075Y0050513D01*
X0050075Y0046338D01*
X0048525Y0046338D01*
X0048525Y0050513D01*
X0045520Y0050513D01*
X0045062Y0050390D01*
X0044651Y0050153D01*
X0044316Y0049818D01*
X0044079Y0049407D01*
X0043957Y0048950D01*
X0043957Y0046338D01*
X0048525Y0046338D01*
X0048525Y0044788D01*
X0043957Y0044788D01*
X0043957Y0042176D01*
X0044079Y0041719D01*
X0044316Y0041308D01*
X0044651Y0040973D01*
X0045062Y0040736D01*
X0045520Y0040613D01*
X0048525Y0040613D01*
X0048525Y0044788D01*
X0050075Y0044788D01*
X0050075Y0040613D01*
X0052819Y0040613D01*
X0052819Y0040500D01*
X0051685Y0039689D01*
X0044928Y0039689D01*
X0043757Y0038517D01*
X0043757Y0035351D01*
X0028861Y0035351D01*
X0027832Y0034925D01*
X0027044Y0034137D01*
X0026618Y0033108D01*
X0026618Y0030689D01*
X0020224Y0030689D01*
X0020024Y0030489D01*
X0019182Y0030489D01*
X0019182Y0029647D01*
X0019182Y0030489D01*
X0018256Y0030489D01*
X0017798Y0030366D01*
X0017388Y0030129D01*
X0017053Y0029794D01*
X0016816Y0029384D01*
X0016693Y0028926D01*
X0016693Y0025933D01*
X0016693Y0022940D01*
X0016816Y0022482D01*
X0017053Y0022072D01*
X0017388Y0021737D01*
X0017798Y0021500D01*
X0018256Y0021377D01*
X0019182Y0021377D01*
X0020024Y0021377D01*
X0020161Y0021240D01*
X0014731Y0021240D01*
X0013646Y0020155D01*
X0013536Y0020345D01*
X0013200Y0020681D01*
X0012790Y0020917D01*
X0012332Y0021040D01*
X0009352Y0021040D01*
X0009352Y0016300D01*
X0007752Y0016300D01*
X0007752Y0021040D01*
X0006600Y0021040D01*
X0006600Y0030659D01*
X0006816Y0030285D01*
X0007151Y0029949D01*
X0007562Y0029712D01*
X0008020Y0029590D01*
X0011025Y0029590D01*
X0011025Y0033764D01*
X0012575Y0033764D01*
X0012575Y0029590D01*
X0015580Y0029590D01*
X0016038Y0029712D01*
X0016449Y0029949D01*
X0016784Y0030285D01*
X0017021Y0030695D01*
X0017143Y0031153D01*
X0017143Y0033765D01*
X0012575Y0033765D01*
X0012575Y0035314D01*
X0017143Y0035314D01*
X0017143Y0037926D01*
X0017021Y0038384D01*
X0016784Y0038794D01*
X0016449Y0039129D01*
X0016038Y0039366D01*
X0015580Y0039489D01*
X0012575Y0039489D01*
X0012575Y0035314D01*
X0011025Y0035314D01*
X0011025Y0039489D01*
X0008020Y0039489D01*
X0007562Y0039366D01*
X0007151Y0039129D01*
X0006816Y0038794D01*
X0006600Y0038419D01*
X0006600Y0041242D01*
X0007428Y0040413D01*
X0016172Y0040413D01*
X0017343Y0041585D01*
X0017343Y0044239D01*
X0018363Y0044239D01*
X0018363Y0043061D01*
X0019535Y0041890D01*
X0029065Y0041890D01*
X0030237Y0043061D01*
X0030237Y0044239D01*
X0030863Y0044239D01*
X0030863Y0043061D01*
X0032035Y0041890D01*
X0041565Y0041890D01*
X0042737Y0043061D01*
X0042737Y0049017D01*
X0047992Y0054272D01*
X0048780Y0055060D01*
X0049206Y0056089D01*
X0049206Y0058570D01*
X0049216Y0058570D01*
X0050387Y0059742D01*
X0050387Y0065361D01*
X0050023Y0065725D01*
X0052106Y0067808D01*
X0052106Y0072530D01*
X0049467Y0075169D01*
X0052106Y0077808D01*
X0052106Y0082530D01*
X0048767Y0085869D01*
X0044045Y0085869D01*
X0041406Y0083230D01*
X0040173Y0084464D01*
X0044279Y0088570D01*
X0044087Y0088378D02*
X0054000Y0088378D01*
X0054000Y0086780D02*
X0042488Y0086780D01*
X0041759Y0083583D02*
X0041054Y0083583D01*
X0040890Y0085181D02*
X0043357Y0085181D01*
X0040319Y0093174D02*
X0034600Y0093174D01*
X0034600Y0091575D02*
X0039364Y0091575D01*
X0037766Y0089977D02*
X0035781Y0089977D01*
X0035781Y0088378D02*
X0036167Y0088378D01*
X0036948Y0094772D02*
X0040319Y0094772D01*
X0041329Y0096371D02*
X0037461Y0096371D01*
X0037461Y0097969D02*
X0054000Y0097969D01*
X0054000Y0096371D02*
X0047271Y0096371D01*
X0048281Y0094772D02*
X0054000Y0094772D01*
X0054000Y0093174D02*
X0048281Y0093174D01*
X0048281Y0091575D02*
X0054000Y0091575D01*
X0054000Y0089977D02*
X0048281Y0089977D01*
X0049455Y0085181D02*
X0054000Y0085181D01*
X0054000Y0083583D02*
X0051054Y0083583D01*
X0052106Y0081984D02*
X0054000Y0081984D01*
X0054000Y0080386D02*
X0052106Y0080386D01*
X0052106Y0078787D02*
X0054000Y0078787D01*
X0054000Y0077189D02*
X0051487Y0077189D01*
X0050645Y0073992D02*
X0054000Y0073992D01*
X0054000Y0075590D02*
X0049888Y0075590D01*
X0052106Y0072393D02*
X0054000Y0072393D01*
X0054000Y0070795D02*
X0052106Y0070795D01*
X0052106Y0069196D02*
X0054000Y0069196D01*
X0054000Y0067598D02*
X0051896Y0067598D01*
X0050297Y0065999D02*
X0054000Y0065999D01*
X0054000Y0064401D02*
X0050387Y0064401D01*
X0050387Y0062802D02*
X0054000Y0062802D01*
X0054000Y0061204D02*
X0050387Y0061204D01*
X0050251Y0059605D02*
X0054000Y0059605D01*
X0054000Y0058007D02*
X0049206Y0058007D01*
X0049206Y0056408D02*
X0054000Y0056408D01*
X0054000Y0054809D02*
X0048530Y0054809D01*
X0048525Y0050014D02*
X0050075Y0050014D01*
X0050075Y0048415D02*
X0048525Y0048415D01*
X0048525Y0046817D02*
X0050075Y0046817D01*
X0049300Y0045563D02*
X0047312Y0045563D01*
X0039300Y0037551D01*
X0016800Y0037551D01*
X0014300Y0035051D01*
X0012312Y0035051D01*
X0011800Y0034539D01*
X0008552Y0031291D01*
X0008552Y0027551D01*
X0008552Y0015500D01*
X0007752Y0016445D02*
X0009352Y0016445D01*
X0009352Y0018044D02*
X0007752Y0018044D01*
X0007752Y0019642D02*
X0009352Y0019642D01*
X0006600Y0021241D02*
X0020160Y0021241D01*
X0019182Y0021377D02*
X0019182Y0022219D01*
X0019182Y0022219D01*
X0019182Y0021377D01*
X0019182Y0025933D02*
X0019182Y0034539D01*
X0011800Y0034539D01*
X0011025Y0035627D02*
X0012575Y0035627D01*
X0012575Y0034029D02*
X0026999Y0034029D01*
X0026618Y0032430D02*
X0017143Y0032430D01*
X0017057Y0030832D02*
X0026618Y0030832D01*
X0029418Y0032551D02*
X0029418Y0025933D01*
X0032107Y0022349D02*
X0030998Y0021240D01*
X0033869Y0021240D01*
X0034954Y0020155D01*
X0035064Y0020345D01*
X0035399Y0020681D01*
X0035810Y0020917D01*
X0036268Y0021040D01*
X0038339Y0021040D01*
X0038339Y0023272D01*
X0039068Y0025994D01*
X0040478Y0028436D01*
X0041793Y0029751D01*
X0032218Y0029751D01*
X0032218Y0025376D01*
X0032107Y0025108D01*
X0032107Y0022349D01*
X0032107Y0022839D02*
X0038339Y0022839D01*
X0038339Y0021241D02*
X0030999Y0021241D01*
X0032107Y0024438D02*
X0038651Y0024438D01*
X0039092Y0026036D02*
X0032218Y0026036D01*
X0032218Y0027635D02*
X0040015Y0027635D01*
X0040048Y0027551D02*
X0039300Y0027551D01*
X0040048Y0027551D02*
X0040048Y0015500D01*
X0041275Y0029233D02*
X0032218Y0029233D01*
X0029418Y0032551D02*
X0049300Y0032551D01*
X0049300Y0034539D01*
X0056288Y0039539D01*
X0056800Y0040051D01*
X0056800Y0145051D01*
X0042312Y0145051D01*
X0042056Y0144795D01*
X0041800Y0145051D01*
X0026800Y0145051D01*
X0026438Y0139531D02*
X0027162Y0139531D01*
X0027162Y0137932D02*
X0026438Y0137932D01*
X0026438Y0136334D02*
X0027162Y0136334D01*
X0027162Y0134735D02*
X0026438Y0134735D01*
X0026438Y0133137D02*
X0027162Y0133137D01*
X0027162Y0131538D02*
X0026438Y0131538D01*
X0026092Y0129940D02*
X0027508Y0129940D01*
X0026293Y0126743D02*
X0054000Y0126743D01*
X0054000Y0128341D02*
X0024694Y0128341D01*
X0021288Y0127787D02*
X0026800Y0122276D01*
X0025697Y0117151D02*
X0027903Y0117151D01*
X0030237Y0118750D02*
X0054000Y0118750D01*
X0054000Y0120348D02*
X0030572Y0120348D01*
X0030572Y0121947D02*
X0054000Y0121947D01*
X0054000Y0123545D02*
X0030572Y0123545D01*
X0030572Y0125144D02*
X0054000Y0125144D01*
X0054000Y0129940D02*
X0037115Y0129940D01*
X0037461Y0131538D02*
X0054000Y0131538D01*
X0054000Y0133137D02*
X0037461Y0133137D01*
X0037461Y0134735D02*
X0054000Y0134735D01*
X0054000Y0136334D02*
X0037554Y0136334D01*
X0039153Y0137932D02*
X0054000Y0137932D01*
X0054000Y0139531D02*
X0040751Y0139531D01*
X0042056Y0144795D02*
X0032312Y0135051D01*
X0034430Y0141129D02*
X0029669Y0141129D01*
X0023028Y0121947D02*
X0006600Y0121947D01*
X0006600Y0123545D02*
X0021570Y0123545D01*
X0023028Y0120348D02*
X0006600Y0120348D01*
X0006600Y0118750D02*
X0023363Y0118750D01*
X0023060Y0112827D02*
X0021288Y0111055D01*
X0021288Y0100051D01*
X0026406Y0094933D01*
X0026406Y0080169D01*
X0023357Y0085181D02*
X0019173Y0085181D01*
X0018684Y0085669D02*
X0016606Y0085669D01*
X0016606Y0080369D01*
X0016206Y0080369D01*
X0016206Y0085498D01*
X0019279Y0088570D01*
X0022110Y0088570D01*
X0023281Y0089742D01*
X0023281Y0094098D01*
X0023606Y0093773D01*
X0023606Y0085430D01*
X0021265Y0083089D01*
X0018684Y0085669D01*
X0019087Y0088378D02*
X0023606Y0088378D01*
X0023606Y0086780D02*
X0017488Y0086780D01*
X0016606Y0085181D02*
X0016206Y0085181D01*
X0016206Y0083583D02*
X0016606Y0083583D01*
X0016606Y0081984D02*
X0016206Y0081984D01*
X0016206Y0080386D02*
X0016606Y0080386D01*
X0009300Y0077276D02*
X0016406Y0070169D01*
X0020771Y0083583D02*
X0021759Y0083583D01*
X0023281Y0089977D02*
X0023606Y0089977D01*
X0023606Y0091575D02*
X0023281Y0091575D01*
X0023281Y0093174D02*
X0023606Y0093174D01*
X0019300Y0092551D02*
X0009300Y0082551D01*
X0009300Y0077276D01*
X0006697Y0083583D02*
X0006600Y0083583D01*
X0006600Y0085181D02*
X0007970Y0085181D01*
X0006600Y0086780D02*
X0009569Y0086780D01*
X0011167Y0088378D02*
X0006600Y0088378D01*
X0006600Y0089977D02*
X0012766Y0089977D01*
X0014364Y0091575D02*
X0006600Y0091575D01*
X0006600Y0093174D02*
X0015319Y0093174D01*
X0015319Y0094772D02*
X0006600Y0094772D01*
X0006600Y0096371D02*
X0016139Y0096371D01*
X0016139Y0097969D02*
X0006600Y0097969D01*
X0006600Y0099568D02*
X0016139Y0099568D01*
X0016139Y0101166D02*
X0006600Y0101166D01*
X0006600Y0102765D02*
X0016139Y0102765D01*
X0016139Y0104363D02*
X0006600Y0104363D01*
X0006600Y0105962D02*
X0017284Y0105962D01*
X0018488Y0107560D02*
X0006600Y0107560D01*
X0006600Y0109159D02*
X0018488Y0109159D01*
X0018488Y0110757D02*
X0006600Y0110757D01*
X0006600Y0112356D02*
X0018796Y0112356D01*
X0019288Y0113954D02*
X0006600Y0113954D01*
X0006600Y0115553D02*
X0019288Y0115553D01*
X0020422Y0117151D02*
X0006600Y0117151D01*
X0006600Y0125144D02*
X0019972Y0125144D01*
X0018690Y0126743D02*
X0006600Y0126743D01*
X0006600Y0128341D02*
X0018488Y0128341D01*
X0016485Y0129940D02*
X0006600Y0129940D01*
X0006600Y0131538D02*
X0016139Y0131538D01*
X0016139Y0133137D02*
X0006600Y0133137D01*
X0006600Y0134735D02*
X0016139Y0134735D01*
X0016139Y0136334D02*
X0006600Y0136334D01*
X0006600Y0137932D02*
X0016139Y0137932D01*
X0016139Y0139531D02*
X0006600Y0139531D01*
X0006600Y0141129D02*
X0018488Y0141129D01*
X0018488Y0142728D02*
X0006600Y0142728D01*
X0006600Y0144326D02*
X0018488Y0144326D01*
X0018488Y0145925D02*
X0006600Y0145925D01*
X0006600Y0147523D02*
X0009280Y0147523D01*
X0007405Y0149122D02*
X0006600Y0149122D01*
X0006600Y0150720D02*
X0006625Y0150720D01*
X0014792Y0147523D02*
X0018488Y0147523D01*
X0017405Y0149122D02*
X0016668Y0149122D01*
X0021288Y0151488D02*
X0021288Y0135051D01*
X0021288Y0127787D01*
X0021288Y0151488D02*
X0022036Y0152551D01*
X0033178Y0117151D02*
X0054000Y0117151D01*
X0054000Y0115553D02*
X0034312Y0115553D01*
X0034312Y0113954D02*
X0054000Y0113954D01*
X0054000Y0112356D02*
X0034971Y0112356D01*
X0036331Y0110757D02*
X0054000Y0110757D01*
X0054000Y0109159D02*
X0036588Y0109159D01*
X0036588Y0107560D02*
X0054000Y0107560D01*
X0054000Y0105962D02*
X0036588Y0105962D01*
X0037461Y0104363D02*
X0054000Y0104363D01*
X0054000Y0102765D02*
X0037461Y0102765D01*
X0037461Y0101166D02*
X0054000Y0101166D01*
X0054000Y0099568D02*
X0037461Y0099568D01*
X0033788Y0100051D02*
X0031800Y0098063D01*
X0031800Y0087551D01*
X0032312Y0100051D02*
X0032312Y0111055D01*
X0033788Y0109579D01*
X0033788Y0100051D01*
X0032312Y0111055D02*
X0030540Y0112827D01*
X0026406Y0070169D02*
X0024300Y0068063D01*
X0024300Y0058063D01*
X0024300Y0047039D02*
X0036800Y0047039D01*
X0046406Y0056646D01*
X0046406Y0062551D01*
X0046931Y0053211D02*
X0054000Y0053211D01*
X0054000Y0051612D02*
X0045333Y0051612D01*
X0044512Y0050014D02*
X0043734Y0050014D01*
X0043957Y0048415D02*
X0042737Y0048415D01*
X0042737Y0046817D02*
X0043957Y0046817D01*
X0043957Y0043620D02*
X0042737Y0043620D01*
X0042737Y0045218D02*
X0048525Y0045218D01*
X0049300Y0045563D02*
X0051800Y0048063D01*
X0051800Y0125051D01*
X0054000Y0141129D02*
X0044669Y0141129D01*
X0052036Y0152551D02*
X0056800Y0147787D01*
X0056800Y0145051D01*
X0024300Y0047039D02*
X0013276Y0047039D01*
X0011800Y0045563D01*
X0011025Y0038824D02*
X0012575Y0038824D01*
X0012575Y0037226D02*
X0011025Y0037226D01*
X0011025Y0032430D02*
X0012575Y0032430D01*
X0012575Y0030832D02*
X0011025Y0030832D01*
X0007419Y0040423D02*
X0006600Y0040423D01*
X0006600Y0038824D02*
X0006847Y0038824D01*
X0006600Y0029233D02*
X0016775Y0029233D01*
X0016693Y0027635D02*
X0006600Y0027635D01*
X0006600Y0026036D02*
X0016693Y0026036D01*
X0016693Y0025933D02*
X0019052Y0025933D01*
X0016693Y0025933D01*
X0016693Y0024438D02*
X0006600Y0024438D01*
X0006600Y0022839D02*
X0016720Y0022839D01*
X0019052Y0025933D02*
X0019052Y0025933D01*
X0019182Y0029647D02*
X0019182Y0029647D01*
X0017143Y0035627D02*
X0043757Y0035627D01*
X0043757Y0037226D02*
X0017143Y0037226D01*
X0016753Y0038824D02*
X0044064Y0038824D01*
X0043998Y0042021D02*
X0041697Y0042021D01*
X0048525Y0042021D02*
X0050075Y0042021D01*
X0050075Y0043620D02*
X0048525Y0043620D01*
X0052711Y0040423D02*
X0016181Y0040423D01*
X0017343Y0042021D02*
X0019403Y0042021D01*
X0018363Y0043620D02*
X0017343Y0043620D01*
X0029197Y0042021D02*
X0031903Y0042021D01*
X0030863Y0043620D02*
X0030237Y0043620D01*
D21*
X0039300Y0027551D03*
X0046406Y0062551D03*
X0044300Y0092551D03*
X0051800Y0125051D03*
X0041800Y0145051D03*
X0026800Y0145051D03*
X0019300Y0092551D03*
X0031800Y0087551D03*
X0008552Y0027551D03*
X0056800Y0040051D03*
M02*
