G75*
%MOIN*%
%OFA0B0*%
%FSLAX25Y25*%
%IPPOS*%
%LPD*%
%AMOC8*
5,1,8,0,0,1.08239X$1,22.5*
%
%ADD10C,0.00000*%
%ADD11R,0.07087X0.06299*%
%ADD12R,0.01378X0.05512*%
%ADD13R,0.07087X0.07480*%
%ADD14R,0.07480X0.07480*%
%ADD15R,0.03543X0.04724*%
%ADD16R,0.06299X0.07874*%
%ADD17R,0.07874X0.06299*%
D10*
X0001800Y0010051D02*
X0001800Y0187591D01*
X0060855Y0187591D01*
X0060855Y0010051D01*
X0001800Y0010051D01*
X0043138Y0021862D02*
X0043140Y0022015D01*
X0043146Y0022169D01*
X0043156Y0022322D01*
X0043170Y0022474D01*
X0043188Y0022627D01*
X0043210Y0022778D01*
X0043235Y0022929D01*
X0043265Y0023080D01*
X0043299Y0023230D01*
X0043336Y0023378D01*
X0043377Y0023526D01*
X0043422Y0023672D01*
X0043471Y0023818D01*
X0043524Y0023962D01*
X0043580Y0024104D01*
X0043640Y0024245D01*
X0043704Y0024385D01*
X0043771Y0024523D01*
X0043842Y0024659D01*
X0043917Y0024793D01*
X0043994Y0024925D01*
X0044076Y0025055D01*
X0044160Y0025183D01*
X0044248Y0025309D01*
X0044339Y0025432D01*
X0044433Y0025553D01*
X0044531Y0025671D01*
X0044631Y0025787D01*
X0044735Y0025900D01*
X0044841Y0026011D01*
X0044950Y0026119D01*
X0045062Y0026224D01*
X0045176Y0026325D01*
X0045294Y0026424D01*
X0045413Y0026520D01*
X0045535Y0026613D01*
X0045660Y0026702D01*
X0045787Y0026789D01*
X0045916Y0026871D01*
X0046047Y0026951D01*
X0046180Y0027027D01*
X0046315Y0027100D01*
X0046452Y0027169D01*
X0046591Y0027234D01*
X0046731Y0027296D01*
X0046873Y0027354D01*
X0047016Y0027409D01*
X0047161Y0027460D01*
X0047307Y0027507D01*
X0047454Y0027550D01*
X0047602Y0027589D01*
X0047751Y0027625D01*
X0047901Y0027656D01*
X0048052Y0027684D01*
X0048203Y0027708D01*
X0048356Y0027728D01*
X0048508Y0027744D01*
X0048661Y0027756D01*
X0048814Y0027764D01*
X0048967Y0027768D01*
X0049121Y0027768D01*
X0049274Y0027764D01*
X0049427Y0027756D01*
X0049580Y0027744D01*
X0049732Y0027728D01*
X0049885Y0027708D01*
X0050036Y0027684D01*
X0050187Y0027656D01*
X0050337Y0027625D01*
X0050486Y0027589D01*
X0050634Y0027550D01*
X0050781Y0027507D01*
X0050927Y0027460D01*
X0051072Y0027409D01*
X0051215Y0027354D01*
X0051357Y0027296D01*
X0051497Y0027234D01*
X0051636Y0027169D01*
X0051773Y0027100D01*
X0051908Y0027027D01*
X0052041Y0026951D01*
X0052172Y0026871D01*
X0052301Y0026789D01*
X0052428Y0026702D01*
X0052553Y0026613D01*
X0052675Y0026520D01*
X0052794Y0026424D01*
X0052912Y0026325D01*
X0053026Y0026224D01*
X0053138Y0026119D01*
X0053247Y0026011D01*
X0053353Y0025900D01*
X0053457Y0025787D01*
X0053557Y0025671D01*
X0053655Y0025553D01*
X0053749Y0025432D01*
X0053840Y0025309D01*
X0053928Y0025183D01*
X0054012Y0025055D01*
X0054094Y0024925D01*
X0054171Y0024793D01*
X0054246Y0024659D01*
X0054317Y0024523D01*
X0054384Y0024385D01*
X0054448Y0024245D01*
X0054508Y0024104D01*
X0054564Y0023962D01*
X0054617Y0023818D01*
X0054666Y0023672D01*
X0054711Y0023526D01*
X0054752Y0023378D01*
X0054789Y0023230D01*
X0054823Y0023080D01*
X0054853Y0022929D01*
X0054878Y0022778D01*
X0054900Y0022627D01*
X0054918Y0022474D01*
X0054932Y0022322D01*
X0054942Y0022169D01*
X0054948Y0022015D01*
X0054950Y0021862D01*
X0054948Y0021709D01*
X0054942Y0021555D01*
X0054932Y0021402D01*
X0054918Y0021250D01*
X0054900Y0021097D01*
X0054878Y0020946D01*
X0054853Y0020795D01*
X0054823Y0020644D01*
X0054789Y0020494D01*
X0054752Y0020346D01*
X0054711Y0020198D01*
X0054666Y0020052D01*
X0054617Y0019906D01*
X0054564Y0019762D01*
X0054508Y0019620D01*
X0054448Y0019479D01*
X0054384Y0019339D01*
X0054317Y0019201D01*
X0054246Y0019065D01*
X0054171Y0018931D01*
X0054094Y0018799D01*
X0054012Y0018669D01*
X0053928Y0018541D01*
X0053840Y0018415D01*
X0053749Y0018292D01*
X0053655Y0018171D01*
X0053557Y0018053D01*
X0053457Y0017937D01*
X0053353Y0017824D01*
X0053247Y0017713D01*
X0053138Y0017605D01*
X0053026Y0017500D01*
X0052912Y0017399D01*
X0052794Y0017300D01*
X0052675Y0017204D01*
X0052553Y0017111D01*
X0052428Y0017022D01*
X0052301Y0016935D01*
X0052172Y0016853D01*
X0052041Y0016773D01*
X0051908Y0016697D01*
X0051773Y0016624D01*
X0051636Y0016555D01*
X0051497Y0016490D01*
X0051357Y0016428D01*
X0051215Y0016370D01*
X0051072Y0016315D01*
X0050927Y0016264D01*
X0050781Y0016217D01*
X0050634Y0016174D01*
X0050486Y0016135D01*
X0050337Y0016099D01*
X0050187Y0016068D01*
X0050036Y0016040D01*
X0049885Y0016016D01*
X0049732Y0015996D01*
X0049580Y0015980D01*
X0049427Y0015968D01*
X0049274Y0015960D01*
X0049121Y0015956D01*
X0048967Y0015956D01*
X0048814Y0015960D01*
X0048661Y0015968D01*
X0048508Y0015980D01*
X0048356Y0015996D01*
X0048203Y0016016D01*
X0048052Y0016040D01*
X0047901Y0016068D01*
X0047751Y0016099D01*
X0047602Y0016135D01*
X0047454Y0016174D01*
X0047307Y0016217D01*
X0047161Y0016264D01*
X0047016Y0016315D01*
X0046873Y0016370D01*
X0046731Y0016428D01*
X0046591Y0016490D01*
X0046452Y0016555D01*
X0046315Y0016624D01*
X0046180Y0016697D01*
X0046047Y0016773D01*
X0045916Y0016853D01*
X0045787Y0016935D01*
X0045660Y0017022D01*
X0045535Y0017111D01*
X0045413Y0017204D01*
X0045294Y0017300D01*
X0045176Y0017399D01*
X0045062Y0017500D01*
X0044950Y0017605D01*
X0044841Y0017713D01*
X0044735Y0017824D01*
X0044631Y0017937D01*
X0044531Y0018053D01*
X0044433Y0018171D01*
X0044339Y0018292D01*
X0044248Y0018415D01*
X0044160Y0018541D01*
X0044076Y0018669D01*
X0043994Y0018799D01*
X0043917Y0018931D01*
X0043842Y0019065D01*
X0043771Y0019201D01*
X0043704Y0019339D01*
X0043640Y0019479D01*
X0043580Y0019620D01*
X0043524Y0019762D01*
X0043471Y0019906D01*
X0043422Y0020052D01*
X0043377Y0020198D01*
X0043336Y0020346D01*
X0043299Y0020494D01*
X0043265Y0020644D01*
X0043235Y0020795D01*
X0043210Y0020946D01*
X0043188Y0021097D01*
X0043170Y0021250D01*
X0043156Y0021402D01*
X0043146Y0021555D01*
X0043140Y0021709D01*
X0043138Y0021862D01*
X0043138Y0175406D02*
X0043140Y0175559D01*
X0043146Y0175713D01*
X0043156Y0175866D01*
X0043170Y0176018D01*
X0043188Y0176171D01*
X0043210Y0176322D01*
X0043235Y0176473D01*
X0043265Y0176624D01*
X0043299Y0176774D01*
X0043336Y0176922D01*
X0043377Y0177070D01*
X0043422Y0177216D01*
X0043471Y0177362D01*
X0043524Y0177506D01*
X0043580Y0177648D01*
X0043640Y0177789D01*
X0043704Y0177929D01*
X0043771Y0178067D01*
X0043842Y0178203D01*
X0043917Y0178337D01*
X0043994Y0178469D01*
X0044076Y0178599D01*
X0044160Y0178727D01*
X0044248Y0178853D01*
X0044339Y0178976D01*
X0044433Y0179097D01*
X0044531Y0179215D01*
X0044631Y0179331D01*
X0044735Y0179444D01*
X0044841Y0179555D01*
X0044950Y0179663D01*
X0045062Y0179768D01*
X0045176Y0179869D01*
X0045294Y0179968D01*
X0045413Y0180064D01*
X0045535Y0180157D01*
X0045660Y0180246D01*
X0045787Y0180333D01*
X0045916Y0180415D01*
X0046047Y0180495D01*
X0046180Y0180571D01*
X0046315Y0180644D01*
X0046452Y0180713D01*
X0046591Y0180778D01*
X0046731Y0180840D01*
X0046873Y0180898D01*
X0047016Y0180953D01*
X0047161Y0181004D01*
X0047307Y0181051D01*
X0047454Y0181094D01*
X0047602Y0181133D01*
X0047751Y0181169D01*
X0047901Y0181200D01*
X0048052Y0181228D01*
X0048203Y0181252D01*
X0048356Y0181272D01*
X0048508Y0181288D01*
X0048661Y0181300D01*
X0048814Y0181308D01*
X0048967Y0181312D01*
X0049121Y0181312D01*
X0049274Y0181308D01*
X0049427Y0181300D01*
X0049580Y0181288D01*
X0049732Y0181272D01*
X0049885Y0181252D01*
X0050036Y0181228D01*
X0050187Y0181200D01*
X0050337Y0181169D01*
X0050486Y0181133D01*
X0050634Y0181094D01*
X0050781Y0181051D01*
X0050927Y0181004D01*
X0051072Y0180953D01*
X0051215Y0180898D01*
X0051357Y0180840D01*
X0051497Y0180778D01*
X0051636Y0180713D01*
X0051773Y0180644D01*
X0051908Y0180571D01*
X0052041Y0180495D01*
X0052172Y0180415D01*
X0052301Y0180333D01*
X0052428Y0180246D01*
X0052553Y0180157D01*
X0052675Y0180064D01*
X0052794Y0179968D01*
X0052912Y0179869D01*
X0053026Y0179768D01*
X0053138Y0179663D01*
X0053247Y0179555D01*
X0053353Y0179444D01*
X0053457Y0179331D01*
X0053557Y0179215D01*
X0053655Y0179097D01*
X0053749Y0178976D01*
X0053840Y0178853D01*
X0053928Y0178727D01*
X0054012Y0178599D01*
X0054094Y0178469D01*
X0054171Y0178337D01*
X0054246Y0178203D01*
X0054317Y0178067D01*
X0054384Y0177929D01*
X0054448Y0177789D01*
X0054508Y0177648D01*
X0054564Y0177506D01*
X0054617Y0177362D01*
X0054666Y0177216D01*
X0054711Y0177070D01*
X0054752Y0176922D01*
X0054789Y0176774D01*
X0054823Y0176624D01*
X0054853Y0176473D01*
X0054878Y0176322D01*
X0054900Y0176171D01*
X0054918Y0176018D01*
X0054932Y0175866D01*
X0054942Y0175713D01*
X0054948Y0175559D01*
X0054950Y0175406D01*
X0054948Y0175253D01*
X0054942Y0175099D01*
X0054932Y0174946D01*
X0054918Y0174794D01*
X0054900Y0174641D01*
X0054878Y0174490D01*
X0054853Y0174339D01*
X0054823Y0174188D01*
X0054789Y0174038D01*
X0054752Y0173890D01*
X0054711Y0173742D01*
X0054666Y0173596D01*
X0054617Y0173450D01*
X0054564Y0173306D01*
X0054508Y0173164D01*
X0054448Y0173023D01*
X0054384Y0172883D01*
X0054317Y0172745D01*
X0054246Y0172609D01*
X0054171Y0172475D01*
X0054094Y0172343D01*
X0054012Y0172213D01*
X0053928Y0172085D01*
X0053840Y0171959D01*
X0053749Y0171836D01*
X0053655Y0171715D01*
X0053557Y0171597D01*
X0053457Y0171481D01*
X0053353Y0171368D01*
X0053247Y0171257D01*
X0053138Y0171149D01*
X0053026Y0171044D01*
X0052912Y0170943D01*
X0052794Y0170844D01*
X0052675Y0170748D01*
X0052553Y0170655D01*
X0052428Y0170566D01*
X0052301Y0170479D01*
X0052172Y0170397D01*
X0052041Y0170317D01*
X0051908Y0170241D01*
X0051773Y0170168D01*
X0051636Y0170099D01*
X0051497Y0170034D01*
X0051357Y0169972D01*
X0051215Y0169914D01*
X0051072Y0169859D01*
X0050927Y0169808D01*
X0050781Y0169761D01*
X0050634Y0169718D01*
X0050486Y0169679D01*
X0050337Y0169643D01*
X0050187Y0169612D01*
X0050036Y0169584D01*
X0049885Y0169560D01*
X0049732Y0169540D01*
X0049580Y0169524D01*
X0049427Y0169512D01*
X0049274Y0169504D01*
X0049121Y0169500D01*
X0048967Y0169500D01*
X0048814Y0169504D01*
X0048661Y0169512D01*
X0048508Y0169524D01*
X0048356Y0169540D01*
X0048203Y0169560D01*
X0048052Y0169584D01*
X0047901Y0169612D01*
X0047751Y0169643D01*
X0047602Y0169679D01*
X0047454Y0169718D01*
X0047307Y0169761D01*
X0047161Y0169808D01*
X0047016Y0169859D01*
X0046873Y0169914D01*
X0046731Y0169972D01*
X0046591Y0170034D01*
X0046452Y0170099D01*
X0046315Y0170168D01*
X0046180Y0170241D01*
X0046047Y0170317D01*
X0045916Y0170397D01*
X0045787Y0170479D01*
X0045660Y0170566D01*
X0045535Y0170655D01*
X0045413Y0170748D01*
X0045294Y0170844D01*
X0045176Y0170943D01*
X0045062Y0171044D01*
X0044950Y0171149D01*
X0044841Y0171257D01*
X0044735Y0171368D01*
X0044631Y0171481D01*
X0044531Y0171597D01*
X0044433Y0171715D01*
X0044339Y0171836D01*
X0044248Y0171959D01*
X0044160Y0172085D01*
X0044076Y0172213D01*
X0043994Y0172343D01*
X0043917Y0172475D01*
X0043842Y0172609D01*
X0043771Y0172745D01*
X0043704Y0172883D01*
X0043640Y0173023D01*
X0043580Y0173164D01*
X0043524Y0173306D01*
X0043471Y0173450D01*
X0043422Y0173596D01*
X0043377Y0173742D01*
X0043336Y0173890D01*
X0043299Y0174038D01*
X0043265Y0174188D01*
X0043235Y0174339D01*
X0043210Y0174490D01*
X0043188Y0174641D01*
X0043170Y0174794D01*
X0043156Y0174946D01*
X0043146Y0175099D01*
X0043140Y0175253D01*
X0043138Y0175406D01*
X0007705Y0175406D02*
X0007707Y0175559D01*
X0007713Y0175713D01*
X0007723Y0175866D01*
X0007737Y0176018D01*
X0007755Y0176171D01*
X0007777Y0176322D01*
X0007802Y0176473D01*
X0007832Y0176624D01*
X0007866Y0176774D01*
X0007903Y0176922D01*
X0007944Y0177070D01*
X0007989Y0177216D01*
X0008038Y0177362D01*
X0008091Y0177506D01*
X0008147Y0177648D01*
X0008207Y0177789D01*
X0008271Y0177929D01*
X0008338Y0178067D01*
X0008409Y0178203D01*
X0008484Y0178337D01*
X0008561Y0178469D01*
X0008643Y0178599D01*
X0008727Y0178727D01*
X0008815Y0178853D01*
X0008906Y0178976D01*
X0009000Y0179097D01*
X0009098Y0179215D01*
X0009198Y0179331D01*
X0009302Y0179444D01*
X0009408Y0179555D01*
X0009517Y0179663D01*
X0009629Y0179768D01*
X0009743Y0179869D01*
X0009861Y0179968D01*
X0009980Y0180064D01*
X0010102Y0180157D01*
X0010227Y0180246D01*
X0010354Y0180333D01*
X0010483Y0180415D01*
X0010614Y0180495D01*
X0010747Y0180571D01*
X0010882Y0180644D01*
X0011019Y0180713D01*
X0011158Y0180778D01*
X0011298Y0180840D01*
X0011440Y0180898D01*
X0011583Y0180953D01*
X0011728Y0181004D01*
X0011874Y0181051D01*
X0012021Y0181094D01*
X0012169Y0181133D01*
X0012318Y0181169D01*
X0012468Y0181200D01*
X0012619Y0181228D01*
X0012770Y0181252D01*
X0012923Y0181272D01*
X0013075Y0181288D01*
X0013228Y0181300D01*
X0013381Y0181308D01*
X0013534Y0181312D01*
X0013688Y0181312D01*
X0013841Y0181308D01*
X0013994Y0181300D01*
X0014147Y0181288D01*
X0014299Y0181272D01*
X0014452Y0181252D01*
X0014603Y0181228D01*
X0014754Y0181200D01*
X0014904Y0181169D01*
X0015053Y0181133D01*
X0015201Y0181094D01*
X0015348Y0181051D01*
X0015494Y0181004D01*
X0015639Y0180953D01*
X0015782Y0180898D01*
X0015924Y0180840D01*
X0016064Y0180778D01*
X0016203Y0180713D01*
X0016340Y0180644D01*
X0016475Y0180571D01*
X0016608Y0180495D01*
X0016739Y0180415D01*
X0016868Y0180333D01*
X0016995Y0180246D01*
X0017120Y0180157D01*
X0017242Y0180064D01*
X0017361Y0179968D01*
X0017479Y0179869D01*
X0017593Y0179768D01*
X0017705Y0179663D01*
X0017814Y0179555D01*
X0017920Y0179444D01*
X0018024Y0179331D01*
X0018124Y0179215D01*
X0018222Y0179097D01*
X0018316Y0178976D01*
X0018407Y0178853D01*
X0018495Y0178727D01*
X0018579Y0178599D01*
X0018661Y0178469D01*
X0018738Y0178337D01*
X0018813Y0178203D01*
X0018884Y0178067D01*
X0018951Y0177929D01*
X0019015Y0177789D01*
X0019075Y0177648D01*
X0019131Y0177506D01*
X0019184Y0177362D01*
X0019233Y0177216D01*
X0019278Y0177070D01*
X0019319Y0176922D01*
X0019356Y0176774D01*
X0019390Y0176624D01*
X0019420Y0176473D01*
X0019445Y0176322D01*
X0019467Y0176171D01*
X0019485Y0176018D01*
X0019499Y0175866D01*
X0019509Y0175713D01*
X0019515Y0175559D01*
X0019517Y0175406D01*
X0019515Y0175253D01*
X0019509Y0175099D01*
X0019499Y0174946D01*
X0019485Y0174794D01*
X0019467Y0174641D01*
X0019445Y0174490D01*
X0019420Y0174339D01*
X0019390Y0174188D01*
X0019356Y0174038D01*
X0019319Y0173890D01*
X0019278Y0173742D01*
X0019233Y0173596D01*
X0019184Y0173450D01*
X0019131Y0173306D01*
X0019075Y0173164D01*
X0019015Y0173023D01*
X0018951Y0172883D01*
X0018884Y0172745D01*
X0018813Y0172609D01*
X0018738Y0172475D01*
X0018661Y0172343D01*
X0018579Y0172213D01*
X0018495Y0172085D01*
X0018407Y0171959D01*
X0018316Y0171836D01*
X0018222Y0171715D01*
X0018124Y0171597D01*
X0018024Y0171481D01*
X0017920Y0171368D01*
X0017814Y0171257D01*
X0017705Y0171149D01*
X0017593Y0171044D01*
X0017479Y0170943D01*
X0017361Y0170844D01*
X0017242Y0170748D01*
X0017120Y0170655D01*
X0016995Y0170566D01*
X0016868Y0170479D01*
X0016739Y0170397D01*
X0016608Y0170317D01*
X0016475Y0170241D01*
X0016340Y0170168D01*
X0016203Y0170099D01*
X0016064Y0170034D01*
X0015924Y0169972D01*
X0015782Y0169914D01*
X0015639Y0169859D01*
X0015494Y0169808D01*
X0015348Y0169761D01*
X0015201Y0169718D01*
X0015053Y0169679D01*
X0014904Y0169643D01*
X0014754Y0169612D01*
X0014603Y0169584D01*
X0014452Y0169560D01*
X0014299Y0169540D01*
X0014147Y0169524D01*
X0013994Y0169512D01*
X0013841Y0169504D01*
X0013688Y0169500D01*
X0013534Y0169500D01*
X0013381Y0169504D01*
X0013228Y0169512D01*
X0013075Y0169524D01*
X0012923Y0169540D01*
X0012770Y0169560D01*
X0012619Y0169584D01*
X0012468Y0169612D01*
X0012318Y0169643D01*
X0012169Y0169679D01*
X0012021Y0169718D01*
X0011874Y0169761D01*
X0011728Y0169808D01*
X0011583Y0169859D01*
X0011440Y0169914D01*
X0011298Y0169972D01*
X0011158Y0170034D01*
X0011019Y0170099D01*
X0010882Y0170168D01*
X0010747Y0170241D01*
X0010614Y0170317D01*
X0010483Y0170397D01*
X0010354Y0170479D01*
X0010227Y0170566D01*
X0010102Y0170655D01*
X0009980Y0170748D01*
X0009861Y0170844D01*
X0009743Y0170943D01*
X0009629Y0171044D01*
X0009517Y0171149D01*
X0009408Y0171257D01*
X0009302Y0171368D01*
X0009198Y0171481D01*
X0009098Y0171597D01*
X0009000Y0171715D01*
X0008906Y0171836D01*
X0008815Y0171959D01*
X0008727Y0172085D01*
X0008643Y0172213D01*
X0008561Y0172343D01*
X0008484Y0172475D01*
X0008409Y0172609D01*
X0008338Y0172745D01*
X0008271Y0172883D01*
X0008207Y0173023D01*
X0008147Y0173164D01*
X0008091Y0173306D01*
X0008038Y0173450D01*
X0007989Y0173596D01*
X0007944Y0173742D01*
X0007903Y0173890D01*
X0007866Y0174038D01*
X0007832Y0174188D01*
X0007802Y0174339D01*
X0007777Y0174490D01*
X0007755Y0174641D01*
X0007737Y0174794D01*
X0007723Y0174946D01*
X0007713Y0175099D01*
X0007707Y0175253D01*
X0007705Y0175406D01*
D11*
X0011800Y0045563D03*
X0011800Y0034539D03*
X0049300Y0034539D03*
X0049300Y0045563D03*
D12*
X0029418Y0025933D03*
X0026859Y0025933D03*
X0024300Y0025933D03*
X0021741Y0025933D03*
X0019182Y0025933D03*
D13*
X0008552Y0015500D03*
X0040048Y0015500D03*
D14*
X0029300Y0015500D03*
X0019300Y0015500D03*
D15*
X0023060Y0112827D03*
X0026800Y0122276D03*
X0030540Y0112827D03*
D16*
X0032312Y0100051D03*
X0021288Y0100051D03*
X0021288Y0135051D03*
X0032312Y0135051D03*
D17*
X0036800Y0058063D03*
X0036800Y0047039D03*
X0024300Y0047039D03*
X0024300Y0058063D03*
M02*
